<?xml version="1.0" encoding="UTF-8" standalone="no"?>
<svg
   xmlns:dc="http://purl.org/dc/elements/1.1/"
   xmlns:cc="http://creativecommons.org/ns#"
   xmlns:rdf="http://www.w3.org/1999/02/22-rdf-syntax-ns#"
   xmlns:svg="http://www.w3.org/2000/svg"
   xmlns="http://www.w3.org/2000/svg"
   version="1.1"
   id="svg885"
   width="1456.799"
   height="551.90063"
   viewBox="0 0 1456.799 551.90063">
  <metadata
     id="metadata891">
    <rdf:RDF>
      <cc:Work
         rdf:about="">
        <dc:format>image/svg+xml</dc:format>
        <dc:type
           rdf:resource="http://purl.org/dc/dcmitype/StillImage" />
        <dc:title></dc:title>
      </cc:Work>
    </rdf:RDF>
  </metadata>
  <defs
     id="defs889" />
  <g
     id="g893"
     transform="translate(-131.35355,-293.83652)">
    <g
       id="g915"
       transform="translate(8.7718673,154.62739)">
      <path
         style="fill:#d5e5ec"
         d="m 151.91283,659.0176 -1.90499,-2.25 2.25,1.90499 c 2.11444,1.79022 2.70524,2.59501 1.90499,2.59501 -0.18976,0 -1.20226,-1.0125 -2.25,-2.25 z m 356.46745,-107.5 c -1.24387,-1.58606 -1.2085,-1.62143 0.37756,-0.37756 0.9625,0.75485 1.75,1.54235 1.75,1.75 0,0.82304 -0.82119,0.29331 -2.12756,-1.37244 z m 273.12756,-10.62756 c 0,-0.20765 0.7875,-0.99515 1.75,-1.75 1.58606,-1.24387 1.62143,-1.2085 0.37756,0.37756 -1.30637,1.66575 -2.12756,2.19548 -2.12756,1.37244 z m 25.40499,-1.87244 -1.90499,-2.25 2.25,1.90499 c 2.11444,1.79022 2.70524,2.59501 1.90499,2.59501 -0.18976,0 -1.20226,-1.0125 -2.25,-2.25 z M 1506.5078,386.89004 c 0,-0.20765 0.7875,-0.99515 1.75,-1.75 1.5861,-1.24387 1.6214,-1.2085 0.3776,0.37756 -1.3064,1.66575 -2.1276,2.19548 -2.1276,1.37244 z m -543.03412,-7.37244 -5.46584,-5.75 5.75,5.46584 c 5.34193,5.07794 6.20809,6.03416 5.46584,6.03416 -0.15629,0 -2.74379,-2.5875 -5.75,-5.75 z m 237.90652,-46 c -1.2438,-1.58606 -1.2085,-1.62143 0.3776,-0.37756 0.9625,0.75485 1.75,1.54235 1.75,1.75 0,0.82304 -0.8212,0.29331 -2.1276,-1.37244 z m 306,-12 c -1.2438,-1.58606 -1.2085,-1.62143 0.3776,-0.37756 0.9625,0.75485 1.75,1.54235 1.75,1.75 0,0.82304 -0.8212,0.29331 -2.1276,-1.37244 z m 49.0738,-158 -3.4462,-3.75 3.75,3.44617 c 3.4904,3.20761 4.2098,4.05383 3.4462,4.05383 -0.1671,0 -1.8546,-1.6875 -3.75,-3.75 z"
         id="path929" />
      <path
         style="fill:#b7d3e0"
         d="m 245.31834,648.51951 c 7.87078,-0.16916 20.47078,-0.16875 28,9.2e-4 7.52923,0.16966 1.0895,0.30807 -14.3105,0.30756 -15.4,-5e-4 -21.56027,-0.13932 -13.6895,-0.30848 z m 100,0 c 7.87078,-0.16916 20.47078,-0.16875 28,9.2e-4 7.52923,0.16966 1.0895,0.30807 -14.3105,0.30756 -15.4,-5e-4 -21.56027,-0.13932 -13.6895,-0.30848 z m 100,0 c 7.87078,-0.16916 20.47078,-0.16875 28,9.2e-4 7.52923,0.16966 1.0895,0.30807 -14.3105,0.30756 -15.4,-5e-4 -21.56027,-0.13932 -13.6895,-0.30848 z m 76.44168,-29.75191 c 0.0111,-2.2 0.21589,-2.98225 0.45508,-1.73834 0.23919,1.24391 0.23011,3.04391 -0.0202,4 -0.25029,0.95609 -0.446,-0.0617 -0.4349,-2.26166 z m -100.09429,0.5 c 0,-1.375 0.22698,-1.9375 0.50439,-1.25 0.27741,0.6875 0.27741,1.8125 0,2.5 -0.27741,0.6875 -0.50439,0.125 -0.50439,-1.25 z m -124.07894,-2.58333 c 0.048,-1.16495 0.28494,-1.4019 0.60416,-0.60417 0.28887,0.72187 0.25335,1.58438 -0.0789,1.91667 -0.33229,0.33229 -0.56864,-0.25834 -0.52522,-1.3125 z m 100.07894,-0.41667 c 0,-1.375 0.22698,-1.9375 0.50439,-1.25 0.27741,0.6875 0.27741,1.8125 0,2.5 -0.27741,0.6875 -0.50439,0.125 -0.50439,-1.25 z m -266.66776,-201 c 0,-108.625 0.11692,-153.0625 0.25981,-98.75 0.1429,54.3125 0.1429,143.1875 0,197.5 -0.14289,54.3125 -0.25981,9.875 -0.25981,-98.75 z m 160.66776,159 c 0,-1.375 0.22698,-1.9375 0.50439,-1.25 0.27741,0.6875 0.27741,1.8125 0,2.5 -0.27741,0.6875 -0.50439,0.125 -0.50439,-1.25 z m 223.92106,-1.58333 c 0.048,-1.16495 0.28494,-1.4019 0.60416,-0.60417 0.28887,0.72187 0.25335,1.58438 -0.0789,1.91667 -0.33229,0.33229 -0.56864,-0.25834 -0.52522,-1.3125 z m -99.84695,-2.41667 c 0,-1.925 0.2058,-2.7125 0.45733,-1.75 0.25152,0.9625 0.25152,2.5375 0,3.5 -0.25153,0.9625 -0.45733,0.175 -0.45733,-1.75 z m -100.03705,-0.5 c 0.0204,-1.65 0.2445,-2.20394 0.49804,-1.23097 0.25354,0.97297 0.23687,2.32297 -0.0371,3 -0.27393,0.67703 -0.48137,-0.11903 -0.46099,-1.76903 z m 514.61755,-20.18311 c 0.72187,-0.28887 1.58438,-0.25335 1.91667,0.0789 0.33229,0.33229 -0.25834,0.56864 -1.3125,0.52522 -1.16495,-0.048 -1.4019,-0.28494 -0.60417,-0.60416 z m 12,0 c 0.72187,-0.28887 1.58438,-0.25335 1.91667,0.0789 0.33229,0.33229 -0.25834,0.56864 -1.3125,0.52522 -1.16495,-0.048 -1.4019,-0.28494 -0.60417,-0.60416 z m 75.9375,0.0208 c 0.6875,-0.27741 1.8125,-0.27741 2.5,0 0.6875,0.27741 0.125,0.50439 -1.25,0.50439 -1.375,0 -1.9375,-0.22698 -1.25,-0.50439 z m 7,0 c 0.6875,-0.27741 1.8125,-0.27741 2.5,0 0.6875,0.27741 0.125,0.50439 -1.25,0.50439 -1.375,0 -1.9375,-0.22698 -1.25,-0.50439 z m 282.99996,0 c 0.6875,-0.27741 1.8125,-0.27741 2.5,0 0.6875,0.27741 0.125,0.50439 -1.25,0.50439 -1.375,0 -1.9375,-0.22698 -1.25,-0.50439 z m 8.0625,-0.0208 c 0.7219,-0.28887 1.5844,-0.25335 1.9167,0.0789 0.3323,0.33229 -0.2584,0.56864 -1.3125,0.52522 -1.165,-0.048 -1.4019,-0.28494 -0.6042,-0.60416 z m 68,0 c 0.7219,-0.28887 1.5844,-0.25335 1.9167,0.0789 0.3323,0.33229 -0.2584,0.56864 -1.3125,0.52522 -1.165,-0.048 -1.4019,-0.28494 -0.6042,-0.60416 z m 6.9375,0.0208 c 0.6875,-0.27741 1.8125,-0.27741 2.5,0 0.6875,0.27741 0.125,0.50439 -1.25,0.50439 -1.375,0 -1.9375,-0.22698 -1.25,-0.50439 z m -287.289,-46.83769 c 2e-4,-25.3 0.1299,-35.50664 0.2883,-22.68142 0.1584,12.82521 0.1582,33.52521 -4e-4,46 -0.1586,12.47478 -0.2881,1.98142 -0.2879,-23.31858 z m 165.7402,37.26747 -0.2012,-8.73253 -24.75,-0.26747 -24.75,-0.26747 -0.056,-9 -0.056,-9 0.3438,8.75 0.3438,8.75 h 24.4938 c 19.5353,0 24.5978,0.27094 25.0075,1.33839 0.2824,0.73612 0.3589,4.89862 0.1698,9.25 l -0.3437,7.91161 -0.2013,-8.73253 z M 730.87307,520.7676 c 0.003,-5.5 0.17053,-7.62242 0.37317,-4.71648 0.20265,2.90594 0.20052,7.40594 -0.005,10 -0.20498,2.59406 -0.37077,0.21648 -0.36817,-5.28352 z m 515.86673,0.5 c 0,-1.925 0.2058,-2.7125 0.4573,-1.75 0.2516,0.9625 0.2516,2.5375 0,3.5 -0.2515,0.9625 -0.4573,0.175 -0.4573,-1.75 z m -370.15301,-6.58333 c 0.048,-1.16495 0.28494,-1.4019 0.60416,-0.60417 0.28887,0.72187 0.25335,1.58438 -0.0789,1.91667 -0.33229,0.33229 -0.56864,-0.25834 -0.52522,-1.3125 z m -120.26645,-4.09978 c 0.72187,-0.28887 1.58438,-0.25335 1.91667,0.0789 0.33229,0.33229 -0.25834,0.56864 -1.3125,0.52522 -1.16495,-0.048 -1.4019,-0.28494 -0.60417,-0.60416 z m -25.452,-26.31689 c 0,-5.225 0.16854,-7.3625 0.37454,-4.75 0.206,2.6125 0.206,6.8875 0,9.5 -0.206,2.6125 -0.37454,0.475 -0.37454,-4.75 z m 389.08326,-0.5 0.056,-9 24.5,-0.0262 24.5,-0.0262 -24.2127,0.2936 -24.2127,0.29359 -0.3435,8.73261 -0.3436,8.73261 0.056,-9 z m -232.24881,0 c 0.0204,-1.65 0.2445,-2.20394 0.49804,-1.23097 0.25354,0.97297 0.23687,2.32297 -0.0371,3 -0.27393,0.67703 -0.48137,-0.11903 -0.46099,-1.76903 z m 19.884,-2.08333 c 0.048,-1.16495 0.28494,-1.4019 0.60416,-0.60417 0.28887,0.72187 0.25335,1.58438 -0.0789,1.91667 -0.33229,0.33229 -0.56864,-0.25834 -0.52522,-1.3125 z m 7.73355,-26.09978 c 0.72187,-0.28887 1.58438,-0.25335 1.91667,0.0789 0.33229,0.33229 -0.25834,0.56864 -1.3125,0.52522 -1.16495,-0.048 -1.4019,-0.28494 -0.60417,-0.60416 z m 9,0 c 0.72187,-0.28887 1.58438,-0.25335 1.91667,0.0789 0.33229,0.33229 -0.25834,0.56864 -1.3125,0.52522 -1.16495,-0.048 -1.4019,-0.28494 -0.60417,-0.60416 z m 280.99996,0 c 0.7219,-0.28887 1.5844,-0.25335 1.9167,0.0789 0.3323,0.33229 -0.2584,0.56864 -1.3125,0.52522 -1.165,-0.048 -1.4019,-0.28494 -0.6042,-0.60416 z m 9,0 c 0.7219,-0.28887 1.5844,-0.25335 1.9167,0.0789 0.3323,0.33229 -0.2584,0.56864 -1.3125,0.52522 -1.165,-0.048 -1.4019,-0.28494 -0.6042,-0.60416 z m 75,0 c 0.7219,-0.28887 1.5844,-0.25335 1.9167,0.0789 0.3323,0.33229 -0.2584,0.56864 -1.3125,0.52522 -1.165,-0.048 -1.4019,-0.28494 -0.6042,-0.60416 z M 708.25784,399.53036 c 2.8875,-0.202 7.6125,-0.202 10.5,0 2.8875,0.202 0.525,0.36728 -5.25,0.36728 -5.775,0 -8.1375,-0.16528 -5.25,-0.36728 z m 76.53651,-0.003 c 3.18258,-0.19905 8.13258,-0.1972 11,0.004 2.86742,0.20131 0.26349,0.36417 -5.78651,0.36191 -6.05,-0.002 -8.39607,-0.16696 -5.21349,-0.36601 z m 198.46349,0.003 c 2.8875,-0.202 7.6125,-0.202 10.5,0 2.8875,0.202 0.525,0.36728 -5.25,0.36728 -5.775,0 -8.1375,-0.16528 -5.25,-0.36728 z m 55.99996,-0.003 c 3.4375,-0.19527 9.0625,-0.19527 12.5,0 3.4375,0.19527 0.625,0.35504 -6.25,0.35504 -6.875,0 -9.6875,-0.15977 -6.25,-0.35504 z m 43.5,-0.008 c 9.7625,-0.16372 25.7375,-0.16372 35.5,0 9.7625,0.16372 1.775,0.29768 -17.75,0.29768 -19.525,0 -27.5125,-0.13396 -17.75,-0.29768 z m 73,0.003 c 5.3625,-0.17981 14.1375,-0.17981 19.5,0 5.3625,0.17981 0.975,0.32692 -9.75,0.32692 -10.725,0 -15.1125,-0.14711 -9.75,-0.32692 z m 91.5,0.008 c 2.8875,-0.202 7.6125,-0.202 10.5,0 2.8875,0.202 0.525,0.36728 -5.25,0.36728 -5.775,0 -8.1375,-0.16528 -5.25,-0.36728 z m 57,0 c 2.8875,-0.202 7.6125,-0.202 10.5,0 2.8875,0.202 0.525,0.36728 -5.25,0.36728 -5.775,0 -8.1375,-0.16528 -5.25,-0.36728 z m 68.5,-0.0112 c 9.7625,-0.16372 25.7375,-0.16372 35.5,0 9.7625,0.16372 1.775,0.29768 -17.75,0.29768 -19.525,0 -27.5125,-0.13396 -17.75,-0.29768 z m 73,0.003 c 5.3625,-0.17981 14.1375,-0.17981 19.5,0 5.3625,0.17981 0.975,0.32692 -9.75,0.32692 -10.725,0 -15.1125,-0.14711 -9.75,-0.32692 z M 843.75784,382.57833 c 0.9625,-0.25152 2.5375,-0.25152 3.5,0 0.9625,0.25153 0.175,0.45733 -1.75,0.45733 -1.925,0 -2.7125,-0.2058 -1.75,-0.45733 z m 87,0 c 0.9625,-0.25152 2.5375,-0.25152 3.5,0 0.9625,0.25153 0.175,0.45733 -1.75,0.45733 -1.925,0 -2.7125,-0.2058 -1.75,-0.45733 z m 239.49996,-1.04288 c 2.3375,-0.21053 6.1625,-0.21053 8.5,0 2.3375,0.21054 0.425,0.3828 -4.25,0.3828 -4.675,0 -6.5875,-0.17226 -4.25,-0.3828 z m 290.5302,-0.004 c 2.6291,-0.20668 6.6791,-0.20418 9,0.006 2.3209,0.20972 0.1698,0.37882 -4.7802,0.37577 -4.95,-0.003 -6.8489,-0.17464 -4.2198,-0.38131 z m -41.9197,-28.26385 c 0,-5.225 0.1685,-7.3625 0.3745,-4.75 0.206,2.6125 0.206,6.8875 0,9.5 -0.206,2.6125 -0.3745,0.475 -0.3745,-4.75 z m 80.7184,0.41667 c 0.048,-1.16495 0.285,-1.4019 0.6042,-0.60417 0.2889,0.72187 0.2534,1.58438 -0.079,1.91667 -0.3323,0.33229 -0.5687,-0.25834 -0.5253,-1.3125 z m -496.3289,-1.15391 c 2.8875,-0.202 7.6125,-0.202 10.5,0 2.8875,0.202 0.525,0.36728 -5.25,0.36728 -5.775,0 -8.1375,-0.16528 -5.25,-0.36728 z m -205.67101,-3.84609 c 0.048,-1.16495 0.28494,-1.4019 0.60416,-0.60417 0.28887,0.72187 0.25335,1.58438 -0.0789,1.91667 -0.33229,0.33229 -0.56864,-0.25834 -0.52522,-1.3125 z M 1098.2578,325.5206 c 6.7375,-0.17301 17.7625,-0.17301 24.5,0 6.7375,0.17301 1.225,0.31456 -12.25,0.31456 -13.475,0 -18.9875,-0.14155 -12.25,-0.31456 z m 302.2108,0.007 23.9619,-0.29492 0.347,-8.23231 0.347,-8.23231 -0.058,8.5 -0.058,8.5 -24.2505,0.0272 -24.2505,0.0272 23.9618,-0.29493 z m -556.21076,-0.92228 c 0.6875,-0.27741 1.8125,-0.27741 2.5,0 0.6875,0.27741 0.125,0.50439 -1.25,0.50439 -1.375,0 -1.9375,-0.22698 -1.25,-0.50439 z m 87,0 c 0.6875,-0.27741 1.8125,-0.27741 2.5,0 0.6875,0.27741 0.125,0.50439 -1.25,0.50439 -1.375,0 -1.9375,-0.22698 -1.25,-0.50439 z M 309.33765,147.51764 c 57.38139,-0.14263 150.98139,-0.14262 208,2e-5 57.0186,0.14264 10.07019,0.25933 -104.32981,0.25932 -114.4,-1e-5 -161.05159,-0.11672 -103.67019,-0.25934 z"
         id="path927" />
      <path
         style="fill:#8ab7cc"
         d="m 414.00784,638.2676 c 0.99549,-1.1 2.03498,-2 2.30998,-2 0.275,0 -0.31449,0.9 -1.30998,2 -0.99549,1.1 -2.03498,2 -2.30998,2 -0.275,0 0.31449,-0.9 1.30998,-2 z m 0.37244,-37.75 c -1.24387,-1.58606 -1.2085,-1.62143 0.37756,-0.37756 0.9625,0.75485 1.75,1.54235 1.75,1.75 0,0.82304 -0.82119,0.29331 -2.12756,-1.37244 z m 369,-93 c -1.24387,-1.58606 -1.2085,-1.62143 0.37756,-0.37756 0.9625,0.75485 1.75,1.54235 1.75,1.75 0,0.82304 -0.82119,0.29331 -2.12756,-1.37244 z m 166.53255,-3.5 -1.90499,-2.25 2.25,1.90499 c 1.2375,1.04774 2.25,2.06024 2.25,2.25 0,0.80025 -0.80479,0.20945 -2.59501,-1.90499 z m -172.53255,-39.5 c -1.24387,-1.58606 -1.2085,-1.62143 0.37756,-0.37756 0.9625,0.75485 1.75,1.54235 1.75,1.75 0,0.82304 -0.82119,0.29331 -2.12756,-1.37244 z m 116.12756,1.37244 c 0,-0.20765 0.7875,-0.99515 1.75,-1.75 1.58606,-1.24387 1.62143,-1.2085 0.37756,0.37756 -1.30637,1.66575 -2.12756,2.19548 -2.12756,1.37244 z m 3.92431,-78.37244 -2.42431,-2.75 2.75,2.42431 c 2.57029,2.26589 3.20859,3.07569 2.42431,3.07569 -0.17912,0 -1.41662,-1.2375 -2.75,-2.75 z m -87.05187,0 c -1.24387,-1.58606 -1.2085,-1.62143 0.37756,-0.37756 0.9625,0.75485 1.75,1.54235 1.75,1.75 0,0.82304 -0.82119,0.29331 -2.12756,-1.37244 z m 407.12752,-1.75 c 1.2917,-1.375 2.5736,-2.5 2.8486,-2.5 0.275,0 -0.5569,1.125 -1.8486,2.5 -1.2917,1.375 -2.5736,2.5 -2.8486,2.5 -0.275,0 0.5569,-1.125 1.8486,-2.5 z m -17,-10.87756 c 0,-0.20765 0.7875,-0.99515 1.75,-1.75 1.5861,-1.24387 1.6214,-1.2085 0.3776,0.37756 -1.3064,1.66575 -2.1276,2.19548 -2.1276,1.37244 z m -374.99996,-41 c 0,-0.20765 0.7875,-0.99515 1.75,-1.75 1.58606,-1.24387 1.62143,-1.2085 0.37756,0.37756 -1.30637,1.66575 -2.12756,2.19548 -2.12756,1.37244 z m 391.92426,-12.37244 -2.4243,-2.75 2.75,2.42431 c 1.5125,1.33338 2.75,2.57088 2.75,2.75 0,0.78428 -0.8098,0.14598 -3.0757,-2.42431 z m -251.05182,-3 c -1.24387,-1.58606 -1.2085,-1.62143 0.37756,-0.37756 0.9625,0.75485 1.75,1.54235 1.75,1.75 0,0.82304 -0.82119,0.29331 -2.12756,-1.37244 z m -619,-11 c -1.24387,-1.58606 -1.2085,-1.62143 0.37756,-0.37756 1.66575,1.30637 2.19548,2.12756 1.37244,2.12756 -0.20765,0 -0.99515,-0.7875 -1.75,-1.75 z m 110.53255,-43.5 -1.90499,-2.25 2.25,1.90499 c 1.2375,1.04774 2.25,2.06024 2.25,2.25 0,0.80025 -0.80479,0.20945 -2.59501,-1.90499 z"
         id="path925" />
      <path
         style="fill:#7cb0c8"
         d="m 306.75784,690.51765 c 57.6125,-0.1426 151.8875,-0.1426 209.5,0 57.6125,0.1426 10.475,0.25926 -104.75,0.25926 -115.225,0 -162.3625,-0.11666 -104.75,-0.25926 z m 1192.49996,0.0877 c 0.6875,-0.27741 1.8125,-0.27741 2.5,0 0.6875,0.27741 0.125,0.50439 -1.25,0.50439 -1.375,0 -1.9375,-0.22698 -1.25,-0.50439 z M 621.00051,415.2676 c 0,-147.125 0.11578,-207.3125 0.2573,-133.75 0.14152,73.5625 0.14152,193.9375 0,267.5 -0.14152,73.5625 -0.2573,13.375 -0.2573,-133.75 z M 262.30532,627.52285 c 4.56362,-0.18572 11.76362,-0.18468 16,0.002 4.23639,0.18698 0.50252,0.33893 -8.29748,0.33766 -8.8,-0.001 -12.26613,-0.15425 -7.70252,-0.33996 z m 100,0 c 4.56362,-0.18572 11.76362,-0.18468 16,0.002 4.23639,0.18698 0.50252,0.33893 -8.29748,0.33766 -8.8,-0.001 -12.26613,-0.15425 -7.70252,-0.33996 z m 100,0 c 4.56362,-0.18572 11.76362,-0.18468 16,0.002 4.23639,0.18698 0.50252,0.33893 -8.29748,0.33766 -8.8,-0.001 -12.26613,-0.15425 -7.70252,-0.33996 z M 130.58679,613.68427 c 0.048,-1.16495 0.28494,-1.4019 0.60416,-0.60417 0.28887,0.72187 0.25335,1.58438 -0.0789,1.91667 -0.3323,0.33229 -0.56864,-0.25834 -0.52522,-1.3125 z m 131.21676,-9.1608 c 4.28763,-0.1879 11.03763,-0.18676 15,0.003 3.96236,0.1893 0.45429,0.34304 -7.79571,0.34164 -8.25,-10e-4 -11.49193,-0.15629 -7.20429,-0.34419 z m 100,0 c 4.28763,-0.1879 11.03763,-0.18676 15,0.003 3.96236,0.1893 0.45429,0.34304 -7.79571,0.34164 -8.25,-10e-4 -11.49193,-0.15629 -7.20429,-0.34419 z m 100,0 c 4.28763,-0.1879 11.03763,-0.18676 15,0.003 3.96236,0.1893 0.45429,0.34304 -7.79571,0.34164 -8.25,-10e-4 -11.49193,-0.15629 -7.20429,-0.34419 z m 262.01251,-56.00351 c 7.04451,-0.17214 18.29451,-0.17164 25,10e-4 6.70548,0.17275 0.94178,0.31359 -12.80822,0.31298 -13.75,-6.1e-4 -19.2363,-0.14195 -12.19178,-0.31409 z m 244.14965,-0.50236 c -0.26364,-0.6875 -0.36202,-21.5 -0.21861,-46.25 l 0.26074,-45 10.5,-0.058 10.5,-0.058 -10.25,0.34294 -10.25,0.34295 v 45.43003 45.43003 l 10.25,0.32409 10.25,0.32409 -10.28138,0.21089 c -7.46439,0.15312 -10.41273,-0.13159 -10.76075,-1.0391 z m 46.02449,0.52129 9.487,-0.34335 0.2891,-28.71397 0.2891,-28.71397 -0.024,29 -0.024,29 -9.7523,0.0573 -9.7523,0.0573 9.487,-0.34335 z m 58.7978,-0.008 c 2.6291,-0.20668 6.6791,-0.20418 9,0.006 2.3209,0.20972 0.1698,0.37882 -4.7802,0.37577 -4.95,-0.003 -6.8489,-0.17464 -4.2198,-0.38131 z m 27.1777,-0.51373 c -0.2637,-0.6875 -0.3621,-21.5 -0.2186,-46.25 l 0.2607,-45 35,-0.02 35,-0.02 -34.75,0.28297 -34.75,0.28297 v 45.47408 45.47408 l 34.75,0.27635 34.75,0.27634 -34.7814,0.23662 c -27.0793,0.18421 -34.8875,-0.0402 -35.2607,-1.01339 z M 737.71409,530.52705 c 3.68844,-0.19186 9.98844,-0.19314 14,-0.003 4.01156,0.1903 0.99375,0.34727 -6.70625,0.34883 -7.7,0.002 -10.98219,-0.15414 -7.29375,-0.34599 z m -386.70625,-5.97572 c 35.58685,-0.70091 65.26929,-0.71635 64.84649,-0.0337 -0.25549,0.4125 -18.10047,0.65088 -39.65551,0.52974 -21.55504,-0.12118 -32.89098,-0.34438 -25.19098,-0.49604 z m 605.57895,-5.86706 c 0.048,-1.16495 0.28494,-1.4019 0.60416,-0.60417 0.28887,0.72187 0.25335,1.58438 -0.0789,1.91667 -0.33229,0.33229 -0.56864,-0.25834 -0.52522,-1.3125 z m -99.60312,-34.16627 0.0242,-27.7504 10,-0.0524 10,-0.0524 -9.73424,0.33725 -9.73424,0.33725 -0.28993,27.46559 -0.28992,27.46558 0.0242,-27.75039 z m -119.68664,26.00819 c 3.45905,-0.19583 8.85905,-0.19422 12,0.004 3.14094,0.19781 0.31081,0.35803 -6.28919,0.35606 -6.6,-0.002 -9.16987,-0.16382 -5.71081,-0.35965 z m -0.50268,-16.99867 c 3.18258,-0.19905 8.13258,-0.1972 11,0.004 2.86742,0.20131 0.26349,0.36417 -5.78651,0.36191 -6.05,-0.002 -8.39607,-0.16696 -5.21349,-0.36601 z M 1177.7802,483.2676 c 0,-2.475 0.195,-3.4875 0.4333,-2.25 0.2384,1.2375 0.2384,3.2625 0,4.5 -0.2383,1.2375 -0.4333,0.225 -0.4333,-2.25 z m -425.45986,-8.68311 c 0.72187,-0.28887 1.58438,-0.25335 1.91667,0.0789 0.33229,0.33229 -0.25834,0.56864 -1.3125,0.52522 -1.16495,-0.048 -1.4019,-0.28494 -0.60417,-0.60416 z m -29.0625,-18.06389 c 6.7375,-0.17301 17.7625,-0.17301 24.5,0 6.7375,0.17301 1.225,0.31456 -12.25,0.31456 -13.475,0 -18.9875,-0.14155 -12.25,-0.31456 z m 79,0.01 c 2.8875,-0.202 7.6125,-0.202 10.5,0 2.8875,0.202 0.525,0.36728 -5.25,0.36728 -5.775,0 -8.1375,-0.16528 -5.25,-0.36728 z m 206.49996,0.002 c 2.6125,-0.206 6.8875,-0.206 9.5,0 2.6125,0.206 0.475,0.37454 -4.75,0.37454 -5.225,0 -7.3625,-0.16854 -4.75,-0.37454 z m 61.5,-0.002 c 2.8875,-0.202 7.6125,-0.202 10.5,0 2.8875,0.202 0.525,0.36728 -5.25,0.36728 -5.775,0 -8.1375,-0.16528 -5.25,-0.36728 z m -662.59207,-49.263 c 0,-1.375 0.22698,-1.9375 0.50439,-1.25 0.27741,0.6875 0.27741,1.8125 0,2.5 -0.27741,0.6875 -0.50439,0.125 -0.50439,-1.25 z m 777.65457,-7.68311 c 0.7219,-0.28887 1.5844,-0.25335 1.9167,0.0789 0.3323,0.33229 -0.2584,0.56864 -1.3125,0.52522 -1.165,-0.048 -1.4019,-0.28494 -0.6042,-0.60416 z m 290,0 c 0.7219,-0.28887 1.5844,-0.25335 1.9167,0.0789 0.3323,0.33229 -0.2584,0.56864 -1.3125,0.52522 -1.165,-0.048 -1.4019,-0.28494 -0.6042,-0.60416 z M 978.00784,353.5176 v -45.75 l 22.99996,-0.0276 23,-0.0276 -22.7399,0.29605 -22.73991,0.29605 -0.26007,45.4816 -0.26008,45.4815 z m 167.99996,0 v -45.75 l 20.2507,-0.0319 20.2507,-0.0319 -19.9906,0.30253 -19.9907,0.30253 -0.26,45.47932 -0.2601,45.47942 z m 290,0 v -45.75 l 20.2507,-0.0319 20.2507,-0.0319 -19.9906,0.30253 -19.9907,0.30253 -0.26,45.47932 -0.2601,45.47942 z m -337.1918,28.00236 c 7.0445,-0.17214 18.2945,-0.17164 25,10e-4 6.7055,0.17275 0.9418,0.31359 -12.8082,0.31298 -13.75,-6.1e-4 -19.2363,-0.14195 -12.1918,-0.31409 z m 277.1173,-0.58595 c -0.2815,-0.73347 -0.3589,-5.12097 -0.1722,-9.75 l 0.3396,-8.41641 0.2036,9.23253 0.2035,9.23253 24.75,0.28576 24.75,0.28576 -24.7814,0.23171 c -19.894,0.18601 -24.8823,-0.0313 -25.2931,-1.10188 z m -247.065,-27.66641 c 0,-5.225 0.1685,-7.3625 0.3745,-4.75 0.206,2.6125 0.206,6.8875 0,9.5 -0.206,2.6125 -0.3745,0.475 -0.3745,-4.75 z m 391.9255,0.5 c 0.01,-2.75 0.2017,-3.75631 0.4316,-2.23625 0.2298,1.52006 0.2237,3.77006 -0.014,5 -0.2373,1.22994 -0.4254,-0.0138 -0.4179,-2.76375 z m -702.03378,0 c 0.0111,-2.2 0.21589,-2.98225 0.45508,-1.73834 0.23919,1.24391 0.23011,3.04391 -0.0202,4 -0.25029,0.95609 -0.446,-0.0617 -0.4349,-2.26166 z m 411.94268,0 c 0.02,-1.65 0.2445,-2.20394 0.4981,-1.23097 0.2535,0.97297 0.2369,2.32297 -0.037,3 -0.2739,0.67703 -0.4813,-0.11903 -0.461,-1.76903 z m 145.1656,-18.5 c 0,-5.225 0.1685,-7.3625 0.3745,-4.75 0.206,2.6125 0.206,6.8875 0,9.5 -0.206,2.6125 -0.3745,0.475 -0.3745,-4.75 z m -342.2026,4 c 0,-1.375 0.227,-1.9375 0.5044,-1.25 0.2774,0.6875 0.2774,1.8125 0,2.5 -0.2774,0.6875 -0.5044,0.125 -0.5044,-1.25 z m 101.0433,-22.23704 -0.2012,-8.73704 -34.75,-0.27635 -34.75,-0.27634 34.7814,-0.23662 c 28.2928,-0.19247 34.8772,0.0131 35.295,1.10178 0.2824,0.73612 0.3589,4.89862 0.1698,9.25 l -0.3437,7.91161 z m -659.12221,-4.34629 c 0.048,-1.16495 0.28494,-1.4019 0.60416,-0.60417 0.28887,0.72187 0.25335,1.58438 -0.0789,1.91667 -0.33229,0.33229 -0.56864,-0.25834 -0.52522,-1.3125 z m 771.67101,-5.15391 c 2.8875,-0.202 7.6125,-0.202 10.5,0 2.8875,0.202 0.525,0.36728 -5.25,0.36728 -5.775,0 -8.1375,-0.16528 -5.25,-0.36728 z m 43,-0.0115 c 10.5875,-0.16197 27.9125,-0.16197 38.5,0 10.5875,0.16197 1.925,0.2945 -19.25,0.2945 -21.175,0 -29.8375,-0.13253 -19.25,-0.2945 z m 81.9355,5.7e-4 c 9.452,-0.1642 25.202,-0.16448 35,-6.2e-4 9.798,0.16387 2.0645,0.29822 -17.1855,0.29856 -19.25,3.4e-4 -27.2665,-0.13373 -17.8145,-0.29794 z m -896.60651,-4.83521 c 0.048,-1.16495 0.28494,-1.4019 0.60416,-0.60417 0.28887,0.72187 0.25335,1.58438 -0.0789,1.91667 -0.33229,0.33229 -0.56864,-0.25834 -0.52522,-1.3125 z M 329.81771,263.7676 c 0.006,-3.3 0.1923,-4.52944 0.41486,-2.73209 0.22256,1.79735 0.21797,4.49735 -0.0102,6 -0.22818,1.50265 -0.41027,0.0321 -0.40466,-3.26791 z M 130.58679,216.68427 c 0.048,-1.16495 0.28494,-1.4019 0.60416,-0.60417 0.28887,0.72187 0.25335,1.58437 -0.0789,1.91667 -0.3323,0.33229 -0.56864,-0.25834 -0.52522,-1.3125 z m 71.73355,-69.09978 c 0.72187,-0.28887 1.58437,-0.25335 1.91667,0.0789 0.33229,0.33229 -0.25834,0.56864 -1.3125,0.52522 -1.16495,-0.048 -1.4019,-0.28494 -0.60417,-0.60416 z"
         id="path923" />
      <path
         style="fill:#5497b7"
         d="m 145.43215,664.5176 -2.42431,-2.75 2.75,2.42431 c 2.57029,2.26589 3.20859,3.07569 2.42431,3.07569 -0.17912,0 -1.41662,-1.2375 -2.75,-2.75 z m 362.07569,-75.62756 c 0,-0.20765 0.7875,-0.99515 1.75,-1.75 1.58606,-1.24387 1.62143,-1.2085 0.37756,0.37756 -1.30637,1.66575 -2.12756,2.19548 -2.12756,1.37244 z M 1239.0078,541.2676 c 0.9955,-1.1 2.035,-2 2.31,-2 0.275,0 -0.3145,0.9 -1.31,2 -0.9955,1.1 -2.035,2 -2.31,2 -0.275,0 0.3145,-0.9 1.31,-2 z m -290.49996,0.62244 c 0,-0.20765 0.7875,-0.99515 1.75,-1.75 1.58606,-1.24387 1.62143,-1.2085 0.37756,0.37756 -1.30637,1.66575 -2.12756,2.19548 -2.12756,1.37244 z m -83,-1 c 0,-0.20765 0.7875,-0.99515 1.75,-1.75 1.58606,-1.24387 1.62143,-1.2085 0.37756,0.37756 -1.30637,1.66575 -2.12756,2.19548 -2.12756,1.37244 z M 1183.3802,500.5176 c -1.2438,-1.58606 -1.2085,-1.62143 0.3776,-0.37756 0.9625,0.75485 1.75,1.54235 1.75,1.75 0,0.82304 -0.8212,0.29331 -2.1276,-1.37244 z m -405.37236,-4.25 c 0.99549,-1.1 2.03498,-2 2.30998,-2 0.275,0 -0.31449,0.9 -1.30998,2 -0.99549,1.1 -2.03498,2 -2.30998,2 -0.275,0 0.31449,-0.9 1.30998,-2 z m 406.99996,-32 c 0.9955,-1.1 2.035,-2 2.31,-2 0.275,0 -0.3145,0.9 -1.31,2 -0.9955,1.1 -2.035,2 -2.31,2 -0.275,0 0.3145,-0.9 1.31,-2 z m -305.49996,-76.5 c 1.29175,-1.375 2.57363,-2.5 2.84863,-2.5 0.275,0 -0.55688,1.125 -1.84863,2.5 -1.29175,1.375 -2.57363,2.5 -2.84863,2.5 -0.275,0 0.55688,-1.125 1.84863,-2.5 z m 87.5,-0.5 c 0.99549,-1.1 2.03498,-2 2.30998,-2 0.275,0 -0.31449,0.9 -1.30998,2 -0.99549,1.1 -2.03498,2 -2.30998,2 -0.275,0 0.31449,-0.9 1.30998,-2 z m -53.62756,-12.75 c -1.24387,-1.58606 -1.2085,-1.62143 0.37756,-0.37756 1.66575,1.30637 2.19548,2.12756 1.37244,2.12756 -0.20765,0 -0.99515,-0.7875 -1.75,-1.75 z m 132.12752,-13.62756 c 0,-0.20765 0.7875,-0.99515 1.75,-1.75 1.5861,-1.24387 1.6214,-1.2085 0.3776,0.37756 -1.3064,1.66575 -2.1276,2.19548 -2.1276,1.37244 z M 897.50784,319.7676 c 1.29175,-1.375 2.57363,-2.5 2.84863,-2.5 0.275,0 -0.55688,1.125 -1.84863,2.5 -1.29175,1.375 -2.57363,2.5 -2.84863,2.5 -0.275,0 0.55688,-1.125 1.84863,-2.5 z"
         id="path921" />
      <path
         style="fill:#3c89ad"
         d="m 840.83948,690.51761 c 120.90741,-0.13997 318.45732,-0.13997 438.99992,0 120.5426,0.13998 21.6184,0.25449 -219.8316,0.25449 -241.44996,0 -340.07572,-0.11452 -219.16832,-0.25449 z m -534.08164,-7.99996 c 57.6125,-0.1426 151.8875,-0.1426 209.5,0 57.6125,0.1426 10.475,0.25926 -104.75,0.25926 -115.225,0 -162.3625,-0.11666 -104.75,-0.25926 z M 1556.5078,665.7676 c 1.2917,-1.375 2.5736,-2.5 2.8486,-2.5 0.275,0 -0.5569,1.125 -1.8486,2.5 -1.2917,1.375 -2.5736,2.5 -2.8486,2.5 -0.275,0 0.5569,-1.125 1.8486,-2.5 z m -1033.59497,-33.75 -1.90499,-2.25 2.5,1.98934 c 1.375,1.09414 2.6875,2.10664 2.91667,2.25 0.22916,0.14336 -0.0386,0.26066 -0.59502,0.26066 -0.55642,0 -1.86892,-1.0125 -2.91666,-2.25 z m 5.59501,1.85699 c 0,-0.21616 0.69837,-0.661 1.55194,-0.98855 0.88992,-0.34149 1.29132,-0.17385 0.94098,0.39301 -0.58726,0.95021 -2.49292,1.40545 -2.49292,0.59554 z m -3.768,-5.60699 c 0,-1.925 0.2058,-2.7125 0.45733,-1.75 0.25152,0.9625 0.25152,2.5375 0,3.5 -0.25153,0.9625 -0.45733,0.175 -0.45733,-1.75 z m 7.84695,0.41667 c 0.048,-1.16495 0.28494,-1.4019 0.60416,-0.60417 0.28887,0.72187 0.25335,1.58438 -0.0789,1.91667 -0.33229,0.33229 -0.56864,-0.25834 -0.52522,-1.3125 z m -11,-1 c 0.048,-1.16495 0.28494,-1.4019 0.60416,-0.60417 0.28887,0.72187 0.25335,1.58438 -0.0789,1.91667 -0.33229,0.33229 -0.56864,-0.25834 -0.52522,-1.3125 z M 253.8896,615.7676 c 0.002,-6.6 0.16382,-9.16987 0.35965,-5.71081 0.19583,3.45905 0.19422,8.85905 -0.004,12 -0.19781,3.14094 -0.35803,0.31081 -0.35606,-6.28919 z m 272.61824,11.10699 c 0,-0.21616 0.69837,-0.661 1.55194,-0.98855 0.88992,-0.34149 1.29132,-0.17385 0.94098,0.39301 -0.58726,0.95021 -2.49292,1.40545 -2.49292,0.59554 z m -3.26667,-2.73108 c 0.67834,-0.68342 1.48524,-0.99067 1.79313,-0.68278 0.30789,0.30789 -0.24711,0.86705 -1.23333,1.24258 -1.4252,0.54268 -1.54006,0.42782 -0.5598,-0.5598 z M 122.58679,613.68427 c 0.048,-1.16495 0.28494,-1.4019 0.60416,-0.60417 0.28887,0.72187 0.25335,1.58438 -0.0789,1.91667 -0.3323,0.33229 -0.56864,-0.25834 -0.52522,-1.3125 z m 161.73355,-9.09978 c 0.72187,-0.28887 1.58438,-0.25335 1.91667,0.0789 0.33229,0.33229 -0.25834,0.56864 -1.3125,0.52522 -1.16495,-0.048 -1.4019,-0.28494 -0.60417,-0.60416 z m 100,0 c 0.72187,-0.28887 1.58438,-0.25335 1.91667,0.0789 0.33229,0.33229 -0.25834,0.56864 -1.3125,0.52522 -1.16495,-0.048 -1.4019,-0.28494 -0.60417,-0.60416 z m 100,0 c 0.72187,-0.28887 1.58438,-0.25335 1.91667,0.0789 0.33229,0.33229 -0.25834,0.56864 -1.3125,0.52522 -1.16495,-0.048 -1.4019,-0.28494 -0.60417,-0.60416 z m -230.3616,-30.81689 0.0491,-11 12.5,-0.0502 12.5,-0.0502 -12.21753,0.33068 -12.21754,0.33069 -0.33157,10.71948 -0.33157,10.71948 0.0491,-11 z m 106.2991,-11.2404 c 3.4375,-0.19527 9.0625,-0.19527 12.5,0 3.4375,0.19527 0.625,0.35504 -6.25,0.35504 -6.875,0 -9.6875,-0.15977 -6.25,-0.35504 z m 100,0 c 3.4375,-0.19527 9.0625,-0.19527 12.5,0 3.4375,0.19527 0.625,0.35504 -6.25,0.35504 -6.875,0 -9.6875,-0.15977 -6.25,-0.35504 z m -152.34501,-10.5096 -1.90499,-2.25 2.25,1.90499 c 2.11444,1.79022 2.70524,2.59501 1.90499,2.59501 -0.18976,0 -1.20226,-1.0125 -2.25,-2.25 z m 403.05668,-49.25 c -2.1e-4,-25.85 0.12905,-36.56849 0.28724,-23.81886 0.15819,12.74963 0.15835,33.89963 3.7e-4,47 -0.15799,13.10037 -0.28741,2.66886 -0.28761,-23.18114 z m 50.35083,45.81689 c 0.72187,-0.28887 1.58438,-0.25335 1.91667,0.0789 0.33229,0.33229 -0.25834,0.56864 -1.3125,0.52522 -1.16495,-0.048 -1.4019,-0.28494 -0.60417,-0.60416 z M 1085.9695,502.7676 c -2e-4,-25.85 0.129,-36.56849 0.2872,-23.81886 0.1582,12.74963 0.1584,33.89963 4e-4,47 -0.158,13.10037 -0.2874,2.66886 -0.2876,-23.18114 z m -841.21166,39.75243 c 7.5625,-0.16988 19.9375,-0.16988 27.5,0 7.5625,0.16989 1.375,0.30888 -13.75,0.30888 -15.125,0 -21.3125,-0.13899 -13.75,-0.30888 z m 100,0 c 7.5625,-0.16988 19.9375,-0.16988 27.5,0 7.5625,0.16989 1.375,0.30888 -13.75,0.30888 -15.125,0 -21.3125,-0.13899 -13.75,-0.30888 z m 100,0 c 7.5625,-0.16988 19.9375,-0.16988 27.5,0 7.5625,0.16989 1.375,0.30888 -13.75,0.30888 -15.125,0 -21.3125,-0.13899 -13.75,-0.30888 z m 438.75,-7.19341 c 0,-0.51754 0.44485,-1.21592 0.98855,-1.55194 0.56686,-0.35034 0.7345,0.0511 0.39301,0.94098 -0.66479,1.73242 -1.38156,2.04939 -1.38156,0.61096 z m 38.25,-3.74835 c 0.9625,-0.25152 2.5375,-0.25152 3.5,0 0.9625,0.25153 0.175,0.45733 -1.75,0.45733 -1.925,0 -2.7125,-0.2058 -1.75,-0.45733 z m 289.99996,0 c 0.9625,-0.25152 2.5375,-0.25152 3.5,0 0.9625,0.25153 0.175,0.45733 -1.75,0.45733 -1.925,0 -2.7125,-0.2058 -1.75,-0.45733 z m 76.019,-0.004 c 0.973,-0.25354 2.323,-0.23687 3,0.0371 0.6771,0.27393 -0.119,0.48137 -1.769,0.46099 -1.65,-0.0204 -2.2039,-0.2445 -1.231,-0.49804 z m -519.19001,-10.89 c 0.048,-1.16495 0.28494,-1.4019 0.60416,-0.60417 0.28887,0.72187 0.25335,1.58438 -0.0789,1.91667 -0.33229,0.33229 -0.56864,-0.25834 -0.52522,-1.3125 z M 796.9509,485.7676 c -4.5e-4,-16.5 0.13655,-23.39031 0.30444,-15.31181 0.16789,8.07851 0.16826,21.57851 8.2e-4,30 -0.16745,8.4215 -0.30481,1.81181 -0.30526,-14.68819 z m 20.71483,25.5 c 0,-1.375 0.22698,-1.9375 0.50439,-1.25 0.27741,0.6875 0.27741,1.8125 0,2.5 -0.27741,0.6875 -0.50439,0.125 -0.50439,-1.25 z m 324.05477,0.26125 21.7128,-0.30005 0.3468,-8.98312 0.3469,-8.98312 -0.06,9.25252 -0.06,9.25252 -22,0.0306 -22,0.0307 21.7127,-0.30004 z m 174.1923,-7.51125 -1.905,-2.25 2.25,1.90499 c 2.1144,1.79022 2.7052,2.59501 1.905,2.59501 -0.1898,0 -1.2023,-1.0125 -2.25,-2.25 z m -57.5326,-3.5 c -1.2438,-1.58606 -1.2085,-1.62143 0.3776,-0.37756 1.6657,1.30637 2.1955,2.12756 1.3724,2.12756 -0.2076,0 -0.9951,-0.7875 -1.75,-1.75 z m -5.6,-17.25 c 0,-2.475 0.195,-3.4875 0.4333,-2.25 0.2384,1.2375 0.2384,3.2625 0,4.5 -0.2383,1.2375 -0.4333,0.225 -0.4333,-2.25 z m -516.52236,-8.73724 c 2.8875,-0.202 7.6125,-0.202 10.5,0 2.8875,0.202 0.525,0.36728 -5.25,0.36728 -5.775,0 -8.1375,-0.16528 -5.25,-0.36728 z m -404.92458,-1.01255 c 24.92898,-0.14888 65.42898,-0.14883 90,1.1e-4 24.57102,0.14894 4.17458,0.27075 -45.32542,0.27069 -49.5,-6e-5 -69.60356,-0.12192 -44.67458,-0.2708 z m 587.44361,0.0568 c 0.97297,-0.25354 2.32297,-0.23687 3,0.0371 0.67703,0.27393 -0.11903,0.48137 -1.76903,0.46099 -1.65,-0.0204 -2.20394,-0.2445 -1.23097,-0.49804 z m 289.99993,0 c 0.973,-0.25354 2.323,-0.23687 3,0.0371 0.6771,0.27393 -0.119,0.48137 -1.769,0.46099 -1.65,-0.0204 -2.2039,-0.2445 -1.231,-0.49804 z m 75,0 c 0.973,-0.25354 2.323,-0.23687 3,0.0371 0.6771,0.27393 -0.119,0.48137 -1.769,0.46099 -1.65,-0.0204 -2.2039,-0.2445 -1.231,-0.49804 z m -23.769,-9.30701 c 0.9955,-1.1 2.035,-2 2.31,-2 0.275,0 -0.3145,0.9 -1.31,2 -0.9955,1.1 -2.035,2 -2.31,2 -0.275,0 0.3145,-0.9 1.31,-2 z m -940.62752,-56.75 c -1.24387,-1.58606 -1.2085,-1.62143 0.37756,-0.37756 1.66575,1.30637 2.19548,2.12756 1.37244,2.12756 -0.20765,0 -0.99515,-0.7875 -1.75,-1.75 z m 523.87756,-5.95573 c 1.2375,-0.23836 3.2625,-0.23836 4.5,0 1.2375,0.23835 0.225,0.43337 -2.25,0.43337 -2.475,0 -3.4875,-0.19502 -2.25,-0.43337 z m 86,0 c 1.2375,-0.23836 3.2625,-0.23836 4.5,0 1.2375,0.23835 0.225,0.43337 -2.25,0.43337 -2.475,0 -3.4875,-0.19502 -2.25,-0.43337 z M 1135.8683,391.2676 c 0,-5.225 0.1685,-7.3625 0.3745,-4.75 0.206,2.6125 0.206,6.8875 0,9.5 -0.206,2.6125 -0.3745,0.475 -0.3745,-4.75 z m 106.1012,-37.5 c -2e-4,-25.85 0.129,-36.56849 0.2872,-23.81886 0.1582,12.74963 0.1584,33.89963 4e-4,47 -0.158,13.10037 -0.2874,2.66886 -0.2876,-23.18114 z m 56.7753,10.27822 -0.237,-36.72178 -13.75,-0.27822 -13.75,-0.27822 -0.063,-9.5 -0.063,-9.5 0.3504,9.25 0.3504,9.25 h 13.4938 c 9.9001,0 13.6221,0.33418 13.9754,1.2548 0.2648,0.69014 0.3573,17.45264 0.2056,37.25 l -0.276,35.9952 -0.2369,-36.72178 z m 21.244,-0.27822 0.019,-37 13.7128,-0.27798 13.7129,-0.27798 0.3434,-8.72202 0.3434,-8.72202 -0.056,9 -0.056,9 -13.7377,0.27814 -13.7377,0.27814 -0.2813,36.72186 -0.2813,36.72186 0.019,-37 z m 105.8842,27 c 0,-5.5 0.1706,-7.62242 0.3732,-4.71648 0.2026,2.90594 0.2005,7.40594 0,10 -0.2053,2.59406 -0.3711,0.21648 -0.3685,-5.28352 z m -550.39405,-13.25 -6.47111,-6.75 6.75,6.47111 c 3.7125,3.55911 6.75,6.59661 6.75,6.75 0,0.73602 -1.01824,-0.20142 -7.02889,-6.47111 z m -452.69875,1.75 c 0,-2.475 0.19502,-3.4875 0.43337,-2.25 0.23836,1.2375 0.23836,3.2625 0,4.5 -0.23835,1.2375 -0.43337,0.225 -0.43337,-2.25 z m -115,-1 c 0,-2.475 0.19502,-3.4875 0.43337,-2.25 0.23836,1.2375 0.23836,3.2625 0,4.5 -0.23835,1.2375 -0.43337,0.225 -0.43337,-2.25 z m 778.1714,-6.5 0.056,-9 21.2506,-0.0306 21.2507,-0.0306 -20.9634,0.30034 -20.9634,0.30034 -0.3435,8.73022 -0.3435,8.73022 0.056,-9 z m -691.51945,4.75 -2.42431,-2.75 2.75,2.42431 c 2.57029,2.26589 3.20859,3.07569 2.42431,3.07569 -0.17912,0 -1.41662,-1.2375 -2.75,-2.75 z m 563.53356,-3.31817 c -0.3631,-0.5875 -1.40215,-0.78584 -2.30902,-0.44076 -1.32651,0.50477 -1.40309,0.37985 -0.39171,-0.63897 1.01377,-1.02122 1.58764,-0.93589 2.96429,0.44076 0.93893,0.93893 1.41227,1.70714 1.05187,1.70714 -0.3604,0 -0.95234,-0.48068 -1.31543,-1.06817 z m 44.31859,-2.66533 c 2.352,-0.21124 5.952,-0.20827 8,0.007 2.0479,0.21487 0.1235,0.38771 -4.2765,0.38408 -4.4,-0.004 -6.07557,-0.17944 -3.7235,-0.39069 z m 384.4181,-8.01215 c 5.882,-0.17649 15.782,-0.17711 22,-10e-4 6.218,0.17574 1.4054,0.32014 -10.6946,0.32089 -12.1,7.6e-4 -17.1874,-0.14302 -11.3054,-0.31951 z m -973.78957,-6.50435 -1.90499,-2.25 2.25,1.90499 c 2.11444,1.79022 2.70524,2.59501 1.90499,2.59501 -0.18976,0 -1.20226,-1.0125 -2.25,-2.25 z m 470.7529,-1.75 c 0,-1.375 0.22698,-1.9375 0.50439,-1.25 0.27741,0.6875 0.27741,1.8125 0,2.5 -0.27741,0.6875 -0.50439,0.125 -0.50439,-1.25 z m 22.03706,-0.5 c 0.0204,-1.65 0.2445,-2.20394 0.49804,-1.23097 0.25354,0.97297 0.23687,2.32297 -0.0371,3 -0.27393,0.67703 -0.48137,-0.11903 -0.46099,-1.76903 z m 180.16551,-18.5 c 0,-5.225 0.1685,-7.3625 0.3745,-4.75 0.206,2.6125 0.206,6.8875 0,9.5 -0.206,2.6125 -0.3745,0.475 -0.3745,-4.75 z m -31.0745,3.5 c 0.01,-2.75 0.2017,-3.75631 0.4316,-2.23625 0.2298,1.52006 0.2237,3.77006 -0.014,5 -0.2373,1.22994 -0.4254,-0.0138 -0.4179,-2.76375 z M 811.50784,318.89004 c 0,-0.20765 0.7875,-0.99515 1.75,-1.75 1.58606,-1.24387 1.62143,-1.2085 0.37756,0.37756 -1.30637,1.66575 -2.12756,2.19548 -2.12756,1.37244 z m 235.40496,-1.87244 -1.905,-2.25 2.25,1.90499 c 2.1144,1.79022 2.7052,2.59501 1.905,2.59501 -0.1898,0 -1.2023,-1.0125 -2.25,-2.25 z m -571.15278,-9.25 c 0.0111,-2.2 0.21589,-2.98225 0.45508,-1.73834 0.23919,1.24391 0.23011,3.04391 -0.0202,4 -0.25029,0.95609 -0.446,-0.0617 -0.4349,-2.26166 z m 266.63307,-0.78965 c 0.43672,-0.4343 5.0287,-0.65637 10.2044,-0.49348 l 9.41035,0.29617 -10.2044,0.49348 c -5.61242,0.27141 -9.84708,0.13814 -9.41035,-0.29617 z m 282.92721,0.60654 c 0.7219,-0.28887 1.5844,-0.25335 1.9167,0.0789 0.3323,0.33229 -0.2584,0.56864 -1.3125,0.52522 -1.165,-0.048 -1.4019,-0.28494 -0.6042,-0.60416 z m 162,0 c 0.7219,-0.28887 1.5844,-0.25335 1.9167,0.0789 0.3323,0.33229 -0.2584,0.56864 -1.3125,0.52522 -1.165,-0.048 -1.4019,-0.28494 -0.6042,-0.60416 z M 149.50784,172.95469 c 0,-0.1721 1.4625,-1.6346 3.25,-3.25 l 3.25,-2.93709 -2.93709,3.25 c -2.73778,3.02946 -3.56291,3.70965 -3.56291,2.93709 z m -3.5,-7.68709 c 2.14824,-2.2 4.1309,-4 4.4059,-4 0.275,0 -1.25766,1.8 -3.4059,4 -2.14824,2.2 -4.1309,4 -4.4059,4 -0.275,0 1.25766,-1.8 3.4059,-4 z m 56.25,-25.66228 c 0.6875,-0.27741 1.8125,-0.27741 2.5,0 0.6875,0.27741 0.125,0.50439 -1.25,0.50439 -1.375,0 -1.9375,-0.22698 -1.25,-0.50439 z m 1300.06246,-0.0208 c 0.7219,-0.28887 1.5844,-0.25335 1.9167,0.0789 0.3323,0.33229 -0.2584,0.56864 -1.3125,0.52522 -1.165,-0.048 -1.4019,-0.28494 -0.6042,-0.60416 z"
         id="path919" />
      <path
         style="fill:#006394"
         d="m 191.50784,688.74811 c -33.14948,-6.81416 -57.75376,-29.66244 -66.24393,-61.51612 l -2.25607,-8.46439 v -203.5 c 0,-231.29531 -0.80505,-210.19826 8.75113,-229.3323 4.46012,-8.93037 6.3054,-11.38462 15.16348,-20.1677 15.43335,-15.30268 31.63707,-23.10841 52.79598,-25.43311 13.59333,-1.49348 1294.83597,-1.5039 1306.81557,-0.0106 36.0152,4.48934 64.7312,30.14485 71.5095,63.88821 1.3332,6.6371 1.4841,32.71777 1.241,214.55552 l -0.2767,207 -2.7447,8 c -4.5964,13.3973 -10.0028,21.98648 -20.1422,32 -10.4452,10.31561 -19.1576,15.6812 -33.6131,20.70103 l -9.5,3.29895 -657.49996,0.15832 c -545.16243,0.13127 -658.61056,-0.07 -664,-1.17781 z m 429.75184,-273.74623 0.25184,-267.76573 -213.75184,0.26573 -213.75184,0.26572 -8.5,2.8373 c -22.43268,7.48803 -38.0377,20.68776 -47.48126,40.1627 -8.18785,16.88537 -7.61142,-1.08407 -7.29788,227.5 l 0.27914,203.5 2.81625,8 c 4.46606,12.68652 9.15493,20.15125 18.59322,29.60057 12.39301,12.40748 27.99816,20.31334 45.09053,22.84369 3.025,0.44782 99.55,0.75606 214.5,0.68498 l 209,-0.12924 z M 231.50784,595.71495 V 543.1623 l 31.25,0.30265 c 30.468,0.29508 31.38211,0.36235 36.52943,2.68845 18.21013,8.22926 21.7566,32.11426 6.49456,43.73991 l -4.22601,3.21911 4.64892,2.2505 c 10.73746,5.19791 16.25346,15.13516 14.8863,26.81812 -1.57968,13.49899 -9.62369,21.29142 -25.43922,24.64361 -4.81898,1.0214 -14.54117,1.41299 -35.39398,1.42559 l -28.75,0.0174 z m 58.18572,31.51782 c 8.3983,-2.33256 11.70009,-12.2332 5.98548,-17.94782 -4.11494,-4.11494 -8.81002,-5.00554 -26.4212,-5.01177 l -15.75,-0.006 v 11.33333 c 0,6.23334 0.3,11.63334 0.66667,12 1.07071,1.07071 31.47304,0.75558 35.51905,-0.36816 z m -3.78429,-43.35954 c 4.3006,-1.7969 6.59857,-5.14209 6.59857,-9.60563 0,-4.30013 -2.04228,-7.43966 -6.3107,-9.70123 -2.554,-1.35321 -6.07769,-1.70067 -17.6893,-1.74429 l -14.5,-0.0545 -0.28275,11.25 -0.28275,11.25 h 14.56487 c 10.19393,0 15.56636,-0.41845 17.90206,-1.39437 z m 45.59857,11.84172 V 543.1623 l 31.25,0.30265 31.25,0.30265 5.56658,2.6107 c 7.64354,3.58479 12.60091,8.93768 14.57904,15.74221 3.05813,10.5196 0.17385,20.72192 -7.78394,27.53349 -2.31402,1.98072 -4.01704,3.7514 -3.7845,3.93486 0.23255,0.18346 1.99782,0.96222 3.92282,1.73059 1.925,0.76836 5.3827,3.27938 7.68378,5.58005 9.01773,9.01611 9.62516,25.51888 1.30935,35.57296 -3.88736,4.69994 -13.5732,9.43867 -21.99313,10.76 -3.575,0.56102 -18.9875,1.02343 -34.25,1.02759 l -27.75,0.008 z m 61.66479,30.13738 c 8.90607,-5.38979 6.42031,-17.81505 -4.09365,-20.4625 -2.45123,-0.61723 -11.23251,-1.12223 -19.51396,-1.12223 h -15.05718 v 12.08098 12.08099 l 17.75,-0.33099 c 15.34848,-0.2862 18.17819,-0.59011 20.91479,-2.24625 z m -7.26336,-41.9791 c 9.11214,-3.80729 8.95893,-16.06973 -0.24746,-19.80491 -1.45968,-0.59222 -9.06647,-1.29633 -16.90397,-1.56469 l -14.25,-0.48793 v 11.62595 11.62595 h 14.03212 c 9.73831,0 15.05329,-0.42667 17.36931,-1.39437 z m 45.59857,11.84172 V 543.1623 l 31.27476,0.30265 31.27475,0.30265 6.61173,3.25678 c 9.87712,4.86523 14.70155,12.24369 14.79487,22.6272 0.0712,7.92535 -1.8597,12.58421 -7.61558,18.37459 l -5.22724,5.25858 3.80982,1.94363 c 9.24747,4.7177 13.93433,11.37549 14.81056,21.03871 1.05973,11.6869 -4.18732,21.66301 -14.01258,26.64184 -8.97686,4.54892 -15.77937,5.32247 -46.97109,5.34131 l -28.75,0.0174 z m 58.12656,31.53415 c 8.55316,-2.37579 11.78364,-11.36947 6.3874,-17.78255 -3.48817,-4.14545 -8.84929,-5.19895 -26.45678,-5.19895 h -15.05718 v 12 12 l 15.75,-0.006 c 8.6625,-0.003 17.38195,-0.45888 19.37656,-1.01292 z m -3.72513,-43.37587 c 4.44027,-1.85526 6.60546,-5.17821 6.56677,-10.07814 -0.0353,-4.46328 -1.10719,-6.29181 -5.28142,-9.00906 -2.30417,-1.49992 -5.51601,-1.91805 -17.75,-2.31074 l -14.93678,-0.47944 v 11.63587 11.63588 h 14.03212 c 9.73831,0 15.05329,-0.42667 17.36931,-1.39437 z m 39.61388,44.64437 c -0.0153,-3.25678 1.20096,-4.03396 3.76596,-2.40634 0.88548,0.56188 1.01358,1.53669 0.41469,3.15566 -0.62384,1.6864 -1.0878,1.9847 -1.65628,1.06489 -0.63356,-1.02513 -0.95964,-1.0095 -1.64937,0.079 -0.58259,0.91946 -0.86462,0.30924 -0.875,-1.89324 z m 2.98469,-1.25 c 0,-0.55 -0.45,-1 -1,-1 -0.55,0 -1,0.45 -1,1 0,0.55 0.45,1 1,1 0.55,0 1,-0.45 1,-1 z m -195.8973,-117.5 -4.36293,-14.5 h -23.86989 c -13.12843,0 -23.86988,-0.26716 -23.86988,-0.5937 0,-0.32653 1.38494,-5.05153 3.07765,-10.5 l 3.07766,-9.9063 89.67234,0.004 89.67235,0.004 3.06127,10.2462 3.06126,10.2462 -23.97889,0.5 -23.97889,0.5 -0.7758,2.5 c -0.42669,1.375 -2.40127,7.7875 -4.38795,14.25 l -3.61214,11.75 h -39.21161 -39.21161 l -4.36294,-14.5 z m 41.2267,-49.1217 c -1.89168,-1.3219 -2.10305,-2.18252 -1.64494,-6.69755 0.42926,-4.23069 0.14916,-5.656 -1.52737,-7.77232 -1.12916,-1.42537 -12.35035,-10.06751 -24.93598,-19.20475 -12.58564,-9.13725 -24.79811,-18.69086 -27.13883,-21.23024 -6.51217,-7.06487 -9.31743,-14.20243 -9.85672,-25.07896 -0.7561,-15.24907 1.17391,-19.43008 21.97612,-47.60729 l 7.97268,-10.79923 2.97632,2.11934 c 2.15015,1.53104 2.76231,2.57364 2.20532,3.75601 -1.43925,3.05519 -0.82397,8.96211 1.16211,11.1567 1.0584,1.16952 12.06231,9.48051 24.45313,18.46885 12.39082,8.98834 24.41696,18.2929 26.72477,20.67679 2.3078,2.38389 5.68167,7.48435 7.49749,11.33435 3.05741,6.48252 3.29961,7.73926 3.27624,17 -0.0202,8.00331 -0.47155,11.09818 -2.26055,15.5 -2.13222,5.24632 -26.53701,40.05712 -28.006,39.94755 -0.38675,-0.0288 -1.67996,-0.73501 -2.87379,-1.56925 z m 45.7555,-60.10847 -2.19842,-1.78017 2.77139,-5.99483 c 5.57768,-12.06516 2.95538,-26.96052 -6.36288,-36.14279 -2.14999,-2.11862 -16.70841,-13.07568 -32.35204,-24.34901 -32.86551,-23.68402 -34.26087,-24.85259 -40.39386,-33.82853 -12.19429,-17.84698 -13.99311,-42.466 -4.47982,-61.31173 3.1223,-6.18523 38.56412,-55.86277 39.8546,-55.86277 0.38163,0 1.5347,0.61483 2.56239,1.36629 1.77836,1.30037 1.78758,1.53686 0.19113,4.90113 -3.18763,6.71743 -1.17305,16.2592 4.54322,21.51835 1.36645,1.25718 18.39898,13.85718 37.85007,28 37.89154,27.55081 42.19531,31.46988 48.00523,43.71423 7.91996,16.69124 8.03759,37.31859 0.30385,53.28319 -1.78213,3.67882 -42.74518,61.86456 -47.86658,67.99181 -0.12642,0.15126 -1.21915,-0.52607 -2.42828,-1.50517 z m 436.17664,146.82878 c 10.06238,-3.93121 18.01032,-13.64829 20.69967,-25.3072 0.54444,-2.36028 1.0009,-18.12891 1.01434,-35.04141 l 0.0245,-30.75 h -10.5 -10.5 v 29.13398 c 0,19.92477 -0.38303,30.41242 -1.21174,33.17841 -2.507,8.3676 -11.68552,13.6799 -21.17681,12.25659 -6.24299,-0.93619 -10.68769,-4.2246 -13.61145,-10.07043 -2.47058,-4.93973 -2.50411,-5.3486 -2.84889,-34.74855 l -0.34889,-29.75 h -10.48487 -10.48487 l 0.40774,32.25 c 0.3891,30.77518 0.51501,32.54725 2.75326,38.75 3.36765,9.3326 12.09392,17.98889 21.07057,20.90161 8.97957,2.91366 26.72026,2.50892 35.19749,-0.803 z m 80.77529,1.31102 c 11.97735,-3.36067 19.7307,-12.64436 20.70585,-24.79275 0.93002,-11.58608 -3.96229,-20.26476 -14.35181,-25.45931 -2.26002,-1.12997 -9.65701,-3.68206 -16.43775,-5.67132 -13.96298,-4.09631 -15.5007,-4.77238 -16.9302,-7.44343 -1.66207,-3.10561 -1.18418,-5.97247 1.43163,-8.58827 2.13883,-2.13884 3.35549,-2.45455 9.45912,-2.45455 6.28916,0 7.85648,0.43836 15.34563,4.292 l 8.34105,4.292 5.41331,-7.87666 5.41331,-7.87667 -2.46348,-1.92854 c -4.02136,-3.14811 -14.05991,-7.61325 -20.07796,-8.93066 -3.19824,-0.70013 -9.4732,-1.04458 -14.58084,-0.80038 -10.79083,0.51592 -18.31894,3.69108 -23.72466,10.00645 -8.04136,9.39452 -8.88087,24.15606 -1.90804,33.55016 3.64644,4.91265 10.31614,8.2604 25.76135,12.93052 18.55819,5.61138 22.40915,9.65314 15.64358,16.4187 -2.67711,2.67711 -3.51542,2.92308 -9.96248,2.92308 -8.05582,0 -15.63594,-2.42196 -21.99322,-7.02715 -2.24903,-1.62919 -4.45568,-3.07706 -4.90367,-3.2175 -0.44799,-0.14044 -3.62799,3.00914 -7.06666,6.99907 l -6.25213,7.25443 2.80062,2.49966 c 3.79018,3.38289 15.56576,9.14664 22.30062,10.91541 7.44863,1.95622 21.03865,1.9493 28.03683,-0.0143 z m 291.10783,-0.38 c 12.156,-3.7688 18.8398,-12.10814 19.635,-24.49847 0.568,-8.85143 -0.8004,-13.44143 -5.5869,-18.73955 -4.5911,-5.08179 -10.5148,-8.03039 -23.8931,-11.89319 -17.573,-5.07396 -21.3703,-8.0585 -18.4389,-14.49224 1.5613,-3.42672 5.5514,-4.67025 13.2895,-4.14172 5.3391,0.36467 8.1192,1.24656 14.1007,4.47296 l 7.4505,4.01874 5.3858,-7.97734 5.3858,-7.97733 -2.477,-2.00575 c -12.0364,-9.74644 -36.0871,-12.89998 -49.2537,-6.45815 -10.7719,5.27022 -16.5627,15.67951 -15.4639,27.79735 0.6928,7.64016 4.0667,13.57357 9.9666,17.52753 4.6537,3.11882 9.6403,4.9919 25.1538,9.44828 11.4458,3.28789 15.3132,7.26393 12.9799,13.34445 -2.7537,7.1762 -22.944,5.71319 -34.2576,-2.48235 -2.249,-1.62919 -4.4669,-3.07706 -4.9287,-3.2175 -1.0228,-0.31107 -12.1925,12.66526 -12.1925,14.16456 0,2.87689 14.3754,10.86873 24.4277,13.58024 7.7314,2.08551 21.1836,1.86509 28.717,-0.47052 z m 79.1683,-1.39434 c 6.8469,-3.34987 12.9928,-10.08415 14.6699,-16.07438 1.6437,-5.87064 0.9046,-17.06077 -1.4479,-21.92221 -3.3689,-6.96188 -12.4444,-11.97337 -30.1332,-16.63962 -13.0408,-3.44009 -17.8721,-7.67798 -15.2683,-13.39277 3.1959,-7.01422 20.3376,-5.81561 31.6088,2.21019 l 3.0272,2.15557 5.2719,-7.62599 c 6.1489,-8.89475 6.0869,-9.22422 -2.6352,-14.01038 -8.8464,-4.85435 -17.0129,-6.62697 -28.3536,-6.1544 -8.5689,0.35707 -10.2121,0.75144 -15.9568,3.82989 -10.432,5.5902 -16.1041,16.18562 -14.6551,27.37551 1.8669,14.41711 7.3849,18.58477 35.8562,27.08181 10.1508,3.0294 12.7031,5.0479 12.7031,10.04619 0,2.89216 -0.5757,3.86568 -3.25,5.49626 -7.0193,4.27977 -21.7622,1.76003 -31.7701,-5.4299 l -4.9213,-3.53561 -6.0293,7.16283 c -3.3161,3.93956 -6.0293,7.52651 -6.0293,7.971 0,1.25308 7.7066,6.53669 13.603,9.32611 9.3627,4.42928 14.9827,5.50769 26.9956,5.18013 9.7194,-0.26502 11.7964,-0.64406 16.7144,-3.05023 z m -534.46799,-0.01 c 6.04069,-1.98852 13.12685,-7.93912 15.55993,-13.06643 2.33891,-4.9289 2.13524,-16.58009 -0.37588,-21.50229 -2.19315,-4.29894 -8.28455,-9.80694 -11.85286,-10.71767 -2.26049,-0.57693 -2.22289,-0.67632 1.37915,-3.64542 4.97035,-4.09698 7.40077,-9.74344 7.40077,-17.1938 0,-10.34391 -4.61198,-17.09968 -14.95608,-21.90816 -4.15518,-1.93155 -6.58809,-2.11648 -31.75,-2.41339 l -27.25,-0.32123 v 46.64114 46.64115 l 28.25,-0.37705 c 23.55601,-0.31439 29.13811,-0.66939 33.59497,-2.13653 z m -40.84497,-26.12687 v -9.63921 l 15.43056,0.3204 c 13.82574,0.28707 15.72379,0.53886 18.25,2.42101 2.23201,1.66296 2.88109,3.02402 3.11535,6.53256 0.24725,3.70311 -0.13553,4.8377 -2.32764,6.89938 -2.52772,2.37732 -3.2051,2.47908 -18.54591,2.78625 l -15.92236,0.31881 z m 0,-36.5759 v -9.07748 l 13.42252,0.32748 c 12.67196,0.30917 13.56928,0.4655 16.04683,2.79579 2.1286,2.00207 2.56824,3.22369 2.32748,6.46736 -0.24286,3.27196 -0.91461,4.41406 -3.69471,6.28169 -3.08175,2.07027 -4.54711,2.28264 -15.75,2.28264 h -12.35212 z m 257,18.57748 v -46.5 h -10.5 -10.5 v 46.5 46.5 h 10.5 10.5 z m 36.23436,18.25 0.2656,-28.25 21.5,28.24883 21.5,28.24884 9.25,10e-4 9.25,0.001 v -46.5 -46.5 h -10.4842 -10.4842 l -0.2658,27.75 -0.2658,27.75 -21,-27.6965 -21,-27.69651 -9.75,-0.0535 -9.75,-0.0532 v 46.5 46.5 h 10.4845 10.4844 z m 145.7656,18.75 v -9.5 h -25 -25 v -8.9805 -8.9805 l 21.75,-0.2695 21.75,-0.2695 0.2875,-9.25 0.2876,-9.25 h -22.0376 -22.0375 v -9 -9 h 24.5 24.5 v -9.5 -9.5 h -35 -35 v 46.5 46.5 h 35.5 35.5 z M 860.79136,399.61828 c 8.57116,-2.50014 21.71648,-11.42608 21.71648,-14.74593 0,-0.63939 -2.84175,-3.97901 -6.31499,-7.42139 l -6.315,-6.25886 -3.935,3.1372 c -7.59554,6.05558 -11.22542,7.40368 -19.93501,7.40368 -11.68918,0 -18.13117,-3.94306 -23.63281,-14.46538 -1.96052,-3.74965 -2.35404,-6.00071 -2.36002,-13.5 -0.006,-7.6286 0.3725,-9.74343 2.48446,-13.87891 6.33689,-12.40835 21.12334,-17.6732 34.20022,-12.17729 1.81948,0.76468 5.25343,2.80423 7.63101,4.53232 2.37757,1.72809 4.67625,3.0029 5.10818,2.83293 0.43193,-0.16998 3.54622,-3.52183 6.92065,-7.44856 l 6.13532,-7.13951 -3.94845,-3.56718 c -8.93063,-8.06828 -18.87869,-11.04862 -34.96481,-10.47509 -10.53482,0.3756 -12.24501,0.71292 -18.53302,3.65543 -9.01375,4.21805 -14.426,8.74434 -19.44746,16.26405 -5.49968,8.23583 -8.09956,17.01843 -8.06882,27.25715 0.0294,9.78444 1.15277,15.09023 4.75102,22.43882 10.12433,20.67656 34.59908,30.53059 58.50805,23.55652 z m 88.21648,-0.49932 c 6.27264,-2.05383 14.51597,-7.11055 18.49362,-11.34457 l 2.33308,-2.48345 -5.84597,-6.26167 c -3.21529,-3.44392 -6.1907,-6.66607 -6.61202,-7.16033 -0.42248,-0.49563 -2.44809,0.57819 -4.51657,2.39434 -6.13702,5.38837 -11.79741,7.4633 -20.35214,7.46046 -8.95123,-0.003 -13.9043,-2.18985 -19.33828,-8.53824 -4.48969,-5.2452 -6.66172,-11.57633 -6.66172,-19.4179 0,-8.77671 2.44378,-15.03901 8.06068,-20.65592 10.15244,-10.15244 24.47589,-10.1418 37.83249,0.0281 l 3.39318,2.58361 6.79256,-7.47017 c 7.84546,-8.62809 7.88289,-8.38368 -2.30005,-15.0196 -8.55181,-5.57297 -16.25754,-7.3142 -30.03485,-6.78684 -10.60375,0.40588 -11.94146,0.69254 -19.10343,4.09374 -30.72012,14.58892 -36.55266,56.19628 -11.15886,79.60347 5.41142,4.98806 15.16437,9.72725 22.76269,11.06092 7.10226,1.24659 18.95316,0.30507 26.25559,-2.08595 z m -220.15661,-9.62155 4.15661,-10.27018 18.98772,0.27018 18.98773,0.27019 4.09636,10 4.09637,10 11.2859,0.28387 c 8.87969,0.22335 11.17275,0.0102 10.75523,-1 -1.19886,-2.90051 -35.65985,-83.65164 -37.56893,-88.03387 l -2.06931,-4.75 h -9.56028 c -9.224,0 -9.59304,0.0861 -10.49125,2.4486 -0.82042,2.15788 -25.86981,61.09984 -35.41559,83.33393 l -3.55594,8.28252 11.06938,-0.28252 11.06939,-0.28253 z m 12.00675,-29.69987 c 2.87149,-7.48299 10.95864,-26.54849 11.16469,-26.32083 0.24192,0.26728 8.54092,20.3358 10.56201,25.54089 l 0.87366,2.25 H 751.8761 c -9.77963,0 -11.49444,-0.22879 -11.01812,-1.47006 z m 257.64986,25.97006 v -14.5 h 7.84316 7.8432 l 9.6606,14.5 9.6606,14.5 h 12.1032 c 9.2752,0 11.9896,-0.29207 11.617,-1.25 -0.2674,-0.6875 -5.0954,-7.98411 -10.729,-16.21469 -9.587,-14.00649 -10.123,-15.04793 -8.3708,-16.26484 9.0381,-6.2771 11.0778,-8.29941 13.8616,-13.74345 2.6775,-5.23597 3.0055,-6.84257 2.9661,-14.52655 -0.038,-7.34767 -0.4569,-9.48256 -2.803,-14.27789 -3.1503,-6.43893 -8.2502,-10.93824 -15.9319,-14.05563 -4.7765,-1.93837 -7.4973,-2.14819 -31.9708,-2.46538 l -26.74996,-0.34671 v 46.57257 46.57257 h 10.5 10.5 z m 0,-46.5 v -13 h 10.55716 c 13.1581,0 18.6829,1.30818 21.9568,5.19895 3.5281,4.19293 3.4919,11.45217 -0.078,15.69507 -3.4104,4.05304 -7.7331,5.09373 -21.1857,5.1004 l -11.25026,0.006 z m 137.78746,51.75 -0.2875,-9.25 -24.75,-0.26747 -24.75,-0.26747 v -8.96264 -8.96264 l 21.25,-0.26989 21.25,-0.26989 0.2875,-9.25 0.2876,-9.25 h -21.5376 -21.5375 v -9 -9 h 24.5 24.5 v -9.5 -9.5 h -35 -35 v 46.5 46.5 h 35.5375 35.5376 z m 62.5224,6.925 c 8.151,-2.7375 14.6231,-6.83492 20.0196,-12.67415 16.3675,-17.71055 16.6753,-44.85232 0.7059,-62.24851 -6.3364,-6.9025 -13.7735,-11.25567 -23.4637,-13.734 -6.705,-1.71486 -11.1003,-2.01834 -29.2317,-2.01834 h -21.34 v 46.59085 46.59085 l 24.25,-0.44565 c 18.7464,-0.34451 25.3416,-0.81227 29.0599,-2.06105 z m -32.3099,-44.19123 v -27.76274 l 11.5563,0.50998 c 10.2119,0.45065 12.2187,0.84759 17.25,3.41198 12.5719,6.40772 17.2966,21.95419 11.0454,36.34455 -2.5352,5.836 -5.225,8.62942 -11.3517,11.78881 -4.3182,2.22678 -6.6023,2.63919 -16.75,3.02427 l -11.75,0.44589 z m 96,0.0162 v -46.5 h -10.5 -10.5 v 46.5 46.5 h 10.5 10.5 z m 58,10.02822 v -36.47178 l 13.75,-0.27822 13.75,-0.27822 v -9.5 -9.5 h -38.5 -38.5 v 9.5 9.5 l 13.75,0.27822 13.75,0.27822 v 36.47178 36.47178 h 11 11 z m 106,26.97178 v -9.5 h -25 -25 v -9 -9 h 21.5 21.5 v -9.5 -9.5 h -21.5 -21.5 v -9 -9 h 24.5 24.5 v -9.5 -9.5 h -35 -35 v 46.5 46.5 h 35.5 35.5 z m 58.7692,7.99236 c 29.8004,-7.02605 44.9767,-39.54812 31.1251,-66.69949 -2.7254,-5.34234 -11.2191,-14.31286 -16.4602,-17.38435 -10.3511,-6.06616 -14.0243,-6.72178 -40.1841,-7.17245 l -24.25,-0.41777 v 46.59085 46.59085 l 21.75,-0.0148 c 15.6506,-0.0106 23.5081,-0.42929 28.0192,-1.49286 z m -28.7692,-44.86908 V 326.2676 h 8.4508 c 16.5829,0 25.3392,3.95961 30.9598,14 2.7563,4.9238 3.0699,6.33811 2.9937,13.5 -0.1297,12.19211 -4.1683,19.29007 -13.7846,24.22653 -4.446,2.28238 -6.6658,2.68687 -16.8697,3.07409 l -11.75,0.44589 z"
         id="path917" />
    </g>
  </g>
</svg>
